<?xml version="1.0" encoding="iso-8859-1"?>
<!-- Uploaded to: SVG Repo, www.svgrepo.com, Generator: SVG Repo Mixer Tools -->
<!DOCTYPE svg PUBLIC "-//W3C//DTD SVG 1.1//EN" "http://www.w3.org/Graphics/SVG/1.1/DTD/svg11.dtd">
<svg height="800px" width="800px" version="1.1" id="Capa_1" xmlns="http://www.w3.org/2000/svg" xmlns:xlink="http://www.w3.org/1999/xlink" 
	 viewBox="0 0 91.823 91.823" xml:space="preserve">
<g>
	<path style="fill-rule:evenodd;clip-rule:evenodd;fill:#497193;" d="M45.912,91.823c25.286,0,45.911-20.624,45.911-45.911
		S71.198,0.001,45.912,0.001C20.625,0.001,0,20.625,0,45.912S20.625,91.823,45.912,91.823z"/>
	<g>
		<path style="fill-rule:evenodd;clip-rule:evenodd;fill:#D56C2B;" d="M36.564,20.212c3.1-2.879,19.709-5.093,26.354,5.759
			c6.644,10.852,3.101,8.194,6.865,15.059c3.764,6.865,3.764,7.751,0.221,12.623c-3.543,4.872-7.308,8.637-4.208,11.959
			c3.101,3.321,4.43,5.093,1.329,9.743c-1.929,2.893,1.454,6.043,3.275,9.396c-7.088,4.479-15.484,7.072-24.488,7.072
			c-7.398,0-14.388-1.752-20.577-4.86c0.082-4.078,1.707-7.198-0.064-9.613c-2.437-3.322-6.201-6.645,0-11.295
			c3.595-2.696-1.604-5.244-4.111-9.911c-2.848-5.299-1.05-11.959,0.346-14.006C24.826,37.265,24.163,18.884,36.564,20.212z"/>
		<path style="fill-rule:evenodd;clip-rule:evenodd;fill:#FFD06E;" d="M66.481,78.073L65.97,87.22
			c-6.061,2.947-12.865,4.603-20.058,4.603c-7.214,0-14.038-1.665-20.111-4.63l-0.51-9.12H66.481z"/>
		<path style="fill-rule:evenodd;clip-rule:evenodd;fill:#FFD06E;" d="M61.422,84.857l0.597,4.059
			c4.267-1.599,8.231-3.814,11.787-6.539C70.81,75.949,60.227,76.728,61.422,84.857z"/>
		<path style="fill-rule:evenodd;clip-rule:evenodd;fill:#FFD06E;" d="M30.027,84.857l-0.577,3.924
			c-4.241-1.63-8.18-3.869-11.707-6.613C20.87,75.966,31.209,76.818,30.027,84.857z"/>
		<path style="fill-rule:evenodd;clip-rule:evenodd;fill:#D56C2B;" d="M54.607,26.548c4.069,3.638,6.275,7.219,5.415,11.729
			c-0.86,4.512,0.104,7.8,5.238,9.986c5.135,2.187,3.467,2.933,2.955,8.083c-0.317,3.206,2.642,5.74,6.148,5.316
			c0.663-0.08-3.811-1.133-3.627-4.381c0.295-5.229,4.621-8.636-0.431-12.955c-5.053-4.317-5.525-5.742-4.575-8.947
			c0.949-3.205-1.569-7.894-6.696-12.233C52.829,17.896,50.538,22.91,54.607,26.548z"/>
		<path style="fill-rule:evenodd;clip-rule:evenodd;fill:#D56C2B;" d="M34.195,46.003c-3.776,3.941-5.722,7.404-4.516,11.836
			c1.205,4.432,0.499,7.784-4.452,10.36c-4.951,2.575-3.23,3.19-2.323,8.287c0.527,2.967-1.849,5.568-5.046,5.768
			c-0.123-0.095-0.247-0.19-0.369-0.285c0.938-0.561,3.297-1.947,2.974-4.355c-0.698-5.19-5.274-8.254-0.569-12.948
			c4.704-4.696,3.169-5.449,1.975-8.57c-1.193-3.123,2.773-8.759,7.629-13.418C59.155,14.217,37.972,42.062,34.195,46.003z"/>
		<path style="fill-rule:evenodd;clip-rule:evenodd;fill:#D56C2B;" d="M36.635,26.548c-4.069,3.638-6.275,7.219-5.415,11.729
			c0.86,4.512-0.104,7.8-5.238,9.986c-5.135,2.187-3.466,2.933-2.955,8.083c0.318,3.206-2.642,5.74-6.147,5.316
			c-0.663-0.08,3.809-1.133,3.627-4.381c-0.296-5.229-4.622-8.636,0.431-12.955c5.052-4.317,5.525-5.742,4.575-8.947
			c-0.95-3.205,1.568-7.894,6.696-12.233C38.413,17.896,40.704,22.91,36.635,26.548z"/>
		<path style="fill-rule:evenodd;clip-rule:evenodd;fill:#D56C2B;" d="M58.269,45.05c3.608,4.095,5.407,7.636,4.018,12.014
			c-1.391,4.377-0.824,7.757,4.016,10.536c4.839,2.78,3.094,3.324,1.975,8.377c-0.696,3.146,1.941,6.014,5.473,6.009
			c0.668-0.001-3.648-1.576-3.081-4.779c0.914-5.157,5.614-8.027,1.11-12.915c-4.504-4.888-2.939-5.575-1.615-8.645
			c1.323-3.07-2.406-8.866-7.062-13.724C34.657,12.25,54.66,40.954,58.269,45.05z"/>
		<path style="fill-rule:evenodd;clip-rule:evenodd;fill:#FBD9BD;" d="M53.874,57.627v20.563c-4.394,5.775-11.583,5.576-15.977,0
			V57.627C37.897,47.059,53.874,47.06,53.874,57.627z"/>
		<path style="fill-rule:evenodd;clip-rule:evenodd;fill:#ECC2A0;" d="M53.874,57.627v13.104c-3.022,2.365-5.937,3.69-7.988,3.69
			c-2.052,0-4.966-1.324-7.988-3.69V57.627C37.897,47.059,53.874,47.059,53.874,57.627z"/>
		<path style="fill-rule:evenodd;clip-rule:evenodd;fill:#FBD9BD;" d="M45.886,71.167c-5.201,0-16.19-8.178-19.586-19.89
			c-3.43-11.826,3.029-28.789,19.586-28.789c16.558,0,23.017,16.962,19.586,28.789C62.075,62.989,51.088,71.167,45.886,71.167z"/>
		<path style="fill-rule:evenodd;clip-rule:evenodd;fill:#FF386A;" d="M39.62,59.376c2.651-2.566,4.719-0.642,6.266-0.642
			c1.548,0,3.615-1.924,6.266,0.642C50.728,66.142,41.51,66.351,39.62,59.376z"/>
		<path style="fill-rule:evenodd;clip-rule:evenodd;fill:#C8204A;" d="M39.621,59.376c2.65-2.566,4.717-0.642,6.265-0.642
			c1.548,0,3.615-1.924,6.266,0.642C48.099,61.373,42.349,60.439,39.621,59.376z"/>
		
			<ellipse transform="matrix(-0.3946 -0.9188 0.9188 -0.3946 -11.7773 94.6235)" style="fill-rule:evenodd;clip-rule:evenodd;fill:#FBD9BD;" cx="25.282" cy="51.191" rx="5.702" ry="3.297"/>
		
			<ellipse transform="matrix(0.3946 -0.9188 0.9188 0.3946 -6.5071 92.5062)" style="fill-rule:evenodd;clip-rule:evenodd;fill:#FBD9BD;" cx="66.95" cy="51.191" rx="5.702" ry="3.297"/>
		<path style="fill-rule:evenodd;clip-rule:evenodd;fill:#D56C2B;" d="M37.337,27.753c1.275,6.197,7.836,9.478,14.033,10.39
			c6.196,0.911,11.664,0.91,8.201,5.102c-3.463,4.192-1.458,8.02,1.823,10.389c3.28,2.369,2.186,8.748-0.73,12.758
			c-2.916,4.01-3.644,7.473-0.183,11.3c3.464,3.827,1.641,3.973-1.275,8.711c-0.749,1.216-0.952,2.513-0.703,3.672
			c0.679-0.193,1.352-0.402,2.017-0.626c0.059-0.417,0.2-0.852,0.452-1.298c2.765-4.887,6.618-6.632,4.249-12.464
			c-2.369-5.832-0.911-6.014,1.458-8.748c2.369-2.734,3.28-9.66,0.365-15.31c-2.917-5.649,2.004-3.827,1.457-10.753
			C67.955,33.951,51.006,8.435,37.337,27.753z"/>
		<path style="fill-rule:evenodd;clip-rule:evenodd;fill:#D56C2B;" d="M48.259,22.521c-4.268,2.471-19.013,16.807-20.674,21.813
			c-1.662,5.007,0.063,9.107,1.066,12.787C25.058,56.223,16.139,16.007,48.259,22.521z"/>
		<g>
			<polygon style="fill-rule:evenodd;clip-rule:evenodd;fill:#B24D1F;" points="36.705,73.654 32.377,77.186 39.628,88.438 
				45.886,82.502 			"/>
			<polygon style="fill-rule:evenodd;clip-rule:evenodd;fill:#B24D1F;" points="55.248,73.564 59.758,77.368 52.144,88.438 
				45.886,82.502 			"/>
		</g>
		<path style="opacity:0.2;fill-rule:evenodd;clip-rule:evenodd;" d="M68.015,37.249c0.3,0.896,0.784,2.027,1.746,3.781
			c1.729,3.152,2.664,5.044,2.826,6.64c0.713,2.942-1.655,5.791-1.871,9.613c-0.184,3.248,4.29,4.301,3.627,4.381
			c-2.352,0.285-4.458-0.762-5.493-2.449c0.002,0.243-0.001,0.484-0.008,0.724c0.239,1.047,1.064,2.346,2.915,4.354
			c4.504,4.888-0.195,7.758-1.11,12.915c-0.132,0.75,0.003,1.411,0.279,1.983c0.971,0.588,1.834,1.411,2.476,2.468
			c0.334,0.219,0.502,0.328,0.327,0.328l-0.141-0.002c0.071,0.132,0.139,0.267,0.203,0.404c-1.823,1.396-3.753,2.656-5.776,3.771
			V78.16c0.099,0.014,0.197,0.028,0.295,0.046c-0.194-0.7-0.226-1.456-0.055-2.229c0.898-4.058,2.2-5.208,0.172-6.942
			c0.657,1.379,0.628,2.799-0.412,4.798V37.249z M45.864,91.823V17.856c5.977-0.076,13.18,1.823,17.032,8.115
			c4.945,8.078,4.246,8.67,5.118,11.277v36.584c-0.245,0.473-0.548,0.978-0.911,1.522c-0.594,0.892-0.683,1.807-0.47,2.744
			c0.455-0.023,0.918-0.004,1.381,0.061v7.999c-6.557,3.609-14.09,5.664-22.103,5.664H45.864z"/>
	</g>
</g>
</svg>