<?xml version="1.0" encoding="iso-8859-1"?>
<!-- Uploaded to: SVG Repo, www.svgrepo.com, Generator: SVG Repo Mixer Tools -->
<!DOCTYPE svg PUBLIC "-//W3C//DTD SVG 1.1//EN" "http://www.w3.org/Graphics/SVG/1.1/DTD/svg11.dtd">
<svg height="800px" width="800px" version="1.1" id="Capa_1" xmlns="http://www.w3.org/2000/svg" xmlns:xlink="http://www.w3.org/1999/xlink" 
	 viewBox="0 0 91.823 91.823" xml:space="preserve">
<g>
	<path style="fill-rule:evenodd;clip-rule:evenodd;fill:#E7962D;" d="M45.911,91.823c25.287,0,45.912-20.624,45.912-45.911
		S71.198,0.001,45.911,0.001S0,20.625,0,45.912S20.624,91.823,45.911,91.823z"/>
	<g>
		<path style="fill-rule:evenodd;clip-rule:evenodd;fill:#FBD9BD;" d="M59.394,86l0.952,3.506c4.275-1.414,8.27-3.441,11.885-5.974
			l-0.091-0.541C70.003,73.146,56.888,76.771,59.394,86z"/>
		<path style="fill-rule:evenodd;clip-rule:evenodd;fill:#2C8145;" d="M72.659,83.229c-0.883-7.564-6.922-6.813-9.817-3.716
			l1.691,8.373C67.409,86.609,70.13,85.044,72.659,83.229z"/>
		<path style="fill-rule:evenodd;clip-rule:evenodd;fill:#FBD9BD;" d="M35.093,86l-1.152,4.244
			c-4.26-1.147-8.274-2.891-11.948-5.138l0.354-2.115C24.483,73.146,37.6,76.771,35.093,86z"/>
		<path style="fill-rule:evenodd;clip-rule:evenodd;fill:#2C8145;" d="M21.788,83.603c0.726-7.963,6.915-7.237,9.856-4.09
			l-1.895,9.382c-2.179-0.82-4.278-1.801-6.285-2.928L21.788,83.603z"/>
		<path style="fill-rule:evenodd;clip-rule:evenodd;fill:#5EBE79;" d="M68.122,77.183l-0.514,9.197
			c-6.461,3.472-13.849,5.442-21.697,5.442c-6.534,0-12.748-1.367-18.375-3.828l-0.604-10.811H68.122z"/>
		<path style="fill-rule:evenodd;clip-rule:evenodd;fill:#2C8145;" d="M37.18,77.183h20.514c1.038,1.24,1.664,2.837,1.664,4.58
			c0,3.94-3.194,7.135-7.134,7.135c-1.843,0-3.521-0.699-4.787-1.845c-1.266,1.146-2.945,1.845-4.787,1.845
			c-3.94,0-7.134-3.194-7.134-7.135C35.516,80.02,36.141,78.423,37.18,77.183z"/>
		<g>
			<path style="fill-rule:evenodd;clip-rule:evenodd;fill:#A1400F;" d="M69.86,27.785c-15.391-13.529-29.477-9.37-34.389-4.186
				C38.2,26.601,55.943,37.335,69.86,27.785z"/>
			<path style="fill-rule:evenodd;clip-rule:evenodd;fill:#A1400F;" d="M75.694,42.47c-7.579-20.564-34.468-23.1-40.223-18.871
				C37.624,27.039,60.301,49.396,75.694,42.47z"/>
			<path style="fill-rule:evenodd;clip-rule:evenodd;fill:#A1400F;" d="M74.13,52.419c-2.845-20.328-32.329-32.129-38.658-28.82
				C37.078,27.325,57.866,56.935,74.13,52.419z"/>
			<path style="fill-rule:evenodd;clip-rule:evenodd;fill:#A1400F;" d="M21.23,32.485c6.078,0.311,16.014-3.229,14.241-8.886
				C30.191,23.728,25.589,25.683,21.23,32.485z"/>
			<path style="fill-rule:evenodd;clip-rule:evenodd;fill:#A1400F;" d="M18.952,44.674c8.243-2.501,16.331-13.962,16.519-21.075
				C31.796,25.315,21.327,30.758,18.952,44.674z"/>
			<path style="fill-rule:evenodd;clip-rule:evenodd;fill:#A1400F;" d="M20.325,53.328c11.887-3.437,16.317-22.709,15.146-29.728
				C32.189,25.984,20.005,39.216,20.325,53.328z"/>
			<path style="fill-rule:evenodd;clip-rule:evenodd;fill:#A1400F;" d="M69.524,64.249c5.753-23.317-27.319-43.03-34.053-40.649
				C36.535,27.515,52.785,66.418,69.524,64.249z"/>
			<path style="fill-rule:evenodd;clip-rule:evenodd;fill:#A1400F;" d="M26.013,65.464c14.94-12.662,14.985-37.34,9.459-41.865
				C32.675,26.538,15.483,52.273,26.013,65.464z"/>
			<path style="fill-rule:evenodd;clip-rule:evenodd;fill:#A1400F;" d="M33.65,74.113c12.643-14.958,8.019-46.964,1.821-50.514
				C33.198,26.96,21.085,62.842,33.65,74.113z"/>
			<path style="fill-rule:evenodd;clip-rule:evenodd;fill:#A1400F;" d="M63.825,73.431c2.373-20.017-21.292-50.904-28.354-49.832
				C35.78,27.645,46.976,72.415,63.825,73.431z"/>
			<path style="fill-rule:evenodd;clip-rule:evenodd;fill:#A1400F;" d="M41.224,73.816c10.264-16.678,0.906-47.633-5.752-50.217
				C33.727,27.262,27.114,64.551,41.224,73.816z"/>
			<path style="fill-rule:evenodd;clip-rule:evenodd;fill:#A1400F;" d="M56.534,76.924c5.165-19.484-13.921-53.393-21.063-53.325
				C35.208,27.648,39.996,73.548,56.534,76.924z"/>
		</g>
		<path style="fill-rule:evenodd;clip-rule:evenodd;fill:#FFDDCB;" d="M55.517,57.029v20.154c0,9.777-15.978,9.622-15.978,0V57.029
			C39.538,46.46,55.517,46.461,55.517,57.029z"/>
		<path style="fill-rule:evenodd;clip-rule:evenodd;fill:#F6C4A9;" d="M55.517,57.029v13.104c-3.024,2.366-5.937,3.69-7.99,3.69
			c-2.051,0-4.965-1.324-7.988-3.689V57.029C39.538,46.46,55.517,46.46,55.517,57.029z"/>
		<path style="fill-rule:evenodd;clip-rule:evenodd;fill:#FFDDCB;" d="M47.526,70.568c-5.2,0-16.188-8.178-19.586-19.89
			c-3.43-11.826,3.03-28.789,19.586-28.789c16.557,0,23.018,16.962,19.587,28.789C63.716,62.39,52.729,70.568,47.526,70.568z"/>
		<path style="fill-rule:evenodd;clip-rule:evenodd;fill:#FF386A;" d="M39.235,58.574c3.508-2.566,7.168-1.048,8.393-1.048
			c1.224,0,4.684-1.519,8.191,1.048C54.073,65.628,41.877,65.806,39.235,58.574z"/>
		<path style="fill-rule:evenodd;clip-rule:evenodd;fill:#A21F40;" d="M39.34,58.536c3.257-1.147,6.136,1.101,8.184,1.101
			c2.049,0,4.935-3.02,8.19-0.985C51.898,62.541,43.182,62.33,39.34,58.536z"/>
		<path style="fill-rule:evenodd;clip-rule:evenodd;fill:#FFFFFF;" d="M39.234,58.536c3.509-1.446,6.091-0.397,8.139-0.397
			c2.048,0,4.938-1.049,8.445,0.397C52.003,60.714,43.077,60.642,39.234,58.536z"/>
		<path style="fill-rule:evenodd;clip-rule:evenodd;fill:#FF386A;" d="M39.252,58.549c3.491-2.532,6.49-0.775,8.535-0.775
			c2.045,0,4.507-1.767,8.015,0.8c-0.013,0.035-0.026,0.07-0.04,0.105C51.29,58.599,43.971,58.554,39.252,58.549z"/>
		
			<ellipse transform="matrix(-0.3947 -0.9188 0.9188 -0.3947 -11.8389 98.4585)" style="fill-rule:evenodd;clip-rule:evenodd;fill:#FFDDCB;" cx="26.512" cy="53.129" rx="5.702" ry="3.297"/>
		
			<ellipse transform="matrix(0.3946 -0.9188 0.9188 0.3946 -7.5425 94.8098)" style="fill-rule:evenodd;clip-rule:evenodd;fill:#FFDDCB;" cx="68.181" cy="53.129" rx="5.702" ry="3.297"/>
		<path style="fill-rule:evenodd;clip-rule:evenodd;fill:#A1400F;" d="M27.408,50.002c-4.511-20.705,10.008-29.759,20.353-29.759
			c11.653,0,22.581,12.739,20.616,28.599c-6.026-2.853-9.987-6.572-15.586-13.172c0.483,2.046,4.894,9.21,9.231,11.648
			c-7.049,1.146-20.178-7.603-27.175-16.757C33.177,37.07,30.479,45.813,27.408,50.002z"/>
		<path style="opacity:0.2;fill-rule:evenodd;clip-rule:evenodd;" d="M68.101,77.183l-0.007,0.135
			c2.144,0.213,4.078,1.887,4.545,5.926c-7.15,5.129-15.836,8.252-25.234,8.553V18.711c6.292-0.353,14.175,1.812,22.435,9.073
			c-1.138,0.78-2.302,1.424-3.479,1.948c3.955,3.125,7.309,7.301,9.313,12.737c-1.468,0.66-3.001,1.053-4.575,1.223
			c1.509,2.692,2.574,5.608,3.011,8.727c-0.787,0.219-1.586,0.357-2.393,0.422c-0.123,0.521-0.298,1.057-0.526,1.589
			c-0.317,0.739-0.709,1.404-1.143,1.974c0.263,2.549,0.115,5.173-0.544,7.845c-2.144,0.277-4.278-0.118-6.375-1.028
			c0.77,3.565,1.054,7.026,0.676,10.212c-2.253-0.136-4.404-1.055-6.441-2.553c-0.077,2.121-0.348,4.151-0.85,6.045
			c-0.345-0.07-0.685-0.159-1.019-0.267v0.525l0,0h2.178h7.177c0.543-0.066,1.095-0.069,1.64,0H68.101z"/>
	</g>
</g>
</svg>