<?xml version="1.0" encoding="iso-8859-1"?>
<!-- Uploaded to: SVG Repo, www.svgrepo.com, Generator: SVG Repo Mixer Tools -->
<!DOCTYPE svg PUBLIC "-//W3C//DTD SVG 1.1//EN" "http://www.w3.org/Graphics/SVG/1.1/DTD/svg11.dtd">
<svg height="800px" width="800px" version="1.1" id="Capa_1" xmlns="http://www.w3.org/2000/svg" xmlns:xlink="http://www.w3.org/1999/xlink" 
	 viewBox="0 0 91.822 91.822" xml:space="preserve">
<g>
	<path style="fill-rule:evenodd;clip-rule:evenodd;fill:#5EBE79;" d="M45.911,91.822c25.287,0,45.911-20.624,45.911-45.911
		S71.198,0,45.911,0C20.624,0,0,20.624,0,45.911S20.624,91.822,45.911,91.822z"/>
	<g>
		<g>
			<path style="fill-rule:evenodd;clip-rule:evenodd;fill:#4D1B02;" d="M21.803,66.155c-3.188-32.814,5.821-47.78,24.55-47.781
				c18.729,0,28.731,16.977,24.15,47.781C56.486,74.37,33.896,73.023,21.803,66.155z"/>
			<path style="fill-rule:evenodd;clip-rule:evenodd;fill:#F9C581;" d="M60.886,83.942l0.91,5.057
				c4.266-1.573,8.232-3.762,11.795-6.458C71.071,74.991,59.354,75.429,60.886,83.942z"/>
			<path style="fill-rule:evenodd;clip-rule:evenodd;fill:#F9C581;" d="M25.558,77.183l0.568,10.168
				c5.991,2.867,12.7,4.472,19.785,4.472c7.281,0,14.166-1.697,20.282-4.715l0.555-9.925H25.558z"/>
			<path style="fill-rule:evenodd;clip-rule:evenodd;fill:#F9C581;" d="M31.148,83.942l-0.924,5.129
				c-4.272-1.553-8.25-3.723-11.823-6.4C20.828,74.985,32.688,75.381,31.148,83.942z"/>
			<path style="fill-rule:evenodd;clip-rule:evenodd;fill:#E7962D;" d="M37.428,77.183l6.563,14.597
				c0.637,0.026,1.277,0.043,1.921,0.043c0.797,0,1.59-0.02,2.377-0.06l6.591-14.58H37.428z"/>
			<path style="fill-rule:evenodd;clip-rule:evenodd;fill:#FFDDCB;" d="M54.141,57.028v20.154c0,7.257-15.976,7.1-15.976,0V57.028
				C38.164,46.46,54.141,46.462,54.141,57.028z"/>
			<path style="fill-rule:evenodd;clip-rule:evenodd;fill:#F6C4A9;" d="M54.141,57.028v13.105c-3.021,2.365-5.937,3.689-7.987,3.689
				c-2.052,0-4.966-1.324-7.989-3.689V57.028C38.164,46.46,54.141,46.46,54.141,57.028z"/>
			<path style="fill-rule:evenodd;clip-rule:evenodd;fill:#FFDDCB;" d="M46.153,70.567c-5.201,0-16.19-8.178-19.587-19.89
				c-3.43-11.826,3.029-28.788,19.587-28.788c16.557,0,23.016,16.961,19.586,28.788C62.342,62.39,51.355,70.567,46.153,70.567z"/>
			<path style="fill-rule:evenodd;clip-rule:evenodd;fill:#FF386A;" d="M40.182,58.776c2.65-2.566,4.718-0.641,6.266-0.641
				c1.548,0,3.615-1.926,6.266,0.641C51.289,65.544,42.071,65.752,40.182,58.776z"/>
			<path style="fill-rule:evenodd;clip-rule:evenodd;fill:#FFFFFF;" d="M41.21,59.127c1.45-0.37,8.828-0.446,10.904-0.081
				C50.4,62.201,42.66,62.019,41.21,59.127z"/>
			<path style="fill-rule:evenodd;clip-rule:evenodd;fill:#FF386A;" d="M40.182,58.776c2.65-2.565,4.718-0.641,6.266-0.641
				c1.548,0,3.615-1.925,6.266,0.641C48.66,60.772,42.91,59.841,40.182,58.776z"/>
			
				<ellipse transform="matrix(-0.3946 -0.9188 0.9188 -0.3946 -11.1014 93.8706)" style="fill-rule:evenodd;clip-rule:evenodd;fill:#FFDDCB;" cx="25.372" cy="50.592" rx="5.701" ry="3.297"/>
			
				<ellipse transform="matrix(0.3947 -0.9188 0.9188 0.3947 -5.9048 92.2213)" style="fill-rule:evenodd;clip-rule:evenodd;fill:#FFDDCB;" cx="67.042" cy="50.592" rx="5.702" ry="3.297"/>
			<path style="fill-rule:evenodd;clip-rule:evenodd;fill:#4D1B02;" d="M57.024,30.542c8.412,5.359,8.905,12.559,9.249,18.121
				C70.056,43.95,70.382,27.263,57.024,30.542z"/>
			<path style="fill-rule:evenodd;clip-rule:evenodd;fill:#4D1B02;" d="M35.402,30.542c-8.412,5.359-8.905,12.559-9.25,18.121
				C22.371,43.95,22.045,27.263,35.402,30.542z"/>
			<path style="fill-rule:evenodd;clip-rule:evenodd;fill:#4D1B02;" d="M24.808,35.53c0.733-23.988,42.499-21.741,42.69,0
				c-4.293,1.03-9.505,1.642-14.92,1.896c-0.305-2.151-0.931-4.906-2.017-8.404c-0.575,1.654-0.965,5.27-1.136,8.512
				c-3.165,0.068-6.351,0.021-9.423-0.129c-0.179-3.166-0.562-6.617-1.119-8.222c-1.026,3.3-1.642,5.938-1.963,8.032
				C32.324,36.877,28.117,36.3,24.808,35.53z"/>
		</g>
		<path style="opacity:0.2;fill-rule:evenodd;clip-rule:evenodd;" d="M46.131,91.82V18.377c0.066-0.001,0.133-0.002,0.2-0.002
			c5.623-0.001,10.459,1.531,14.35,4.507c1.676,1.203,3.119,2.642,4.242,4.305c5.979,7.955,8.209,21.148,5.558,38.969
			c-4.724,2.768-10.421,4.449-16.361,5.2v5.827h12.607l-0.002,0.033c2.789,0.189,5.733,1.971,6.851,5.337
			C65.936,88.329,56.435,91.772,46.131,91.82z"/>
	</g>
</g>
</svg>