<?xml version="1.0" encoding="iso-8859-1"?>
<!-- Uploaded to: SVG Repo, www.svgrepo.com, Generator: SVG Repo Mixer Tools -->
<!DOCTYPE svg PUBLIC "-//W3C//DTD SVG 1.1//EN" "http://www.w3.org/Graphics/SVG/1.1/DTD/svg11.dtd">
<svg height="800px" width="800px" version="1.1" id="Capa_1" xmlns="http://www.w3.org/2000/svg" xmlns:xlink="http://www.w3.org/1999/xlink" 
	 viewBox="0 0 91.824 91.824" xml:space="preserve">
<g>
	<path style="fill-rule:evenodd;clip-rule:evenodd;fill:#E72C4F;" d="M45.912,91.823c25.287,0,45.911-20.624,45.911-45.911
		S71.199,0,45.912,0C20.625,0,0.001,20.625,0.001,45.912S20.625,91.823,45.912,91.823z"/>
	<g>
		<path style="fill-rule:evenodd;clip-rule:evenodd;fill:#4E6078;" d="M30.053,87.139l-0.26,1.771
			c-3.962-1.484-7.663-3.503-11.018-5.965C22.664,78.459,31.129,79.822,30.053,87.139z"/>
		<path style="fill-rule:evenodd;clip-rule:evenodd;fill:#4E6078;" d="M61.616,87.139l0.269,1.828
			c3.979-1.477,7.697-3.49,11.068-5.951C69.093,78.445,60.534,79.785,61.616,87.139z"/>
		<path style="fill-rule:evenodd;clip-rule:evenodd;fill:#E5A775;" d="M66.507,80.354l-0.943,7.061
			c-5.958,2.825-12.619,4.409-19.651,4.409c-7.083,0-13.792-1.605-19.782-4.471l-0.813-6.999H66.507z"/>
		<path style="fill-rule:evenodd;clip-rule:evenodd;fill:#E2687F;" d="M25.316,80.354l0.38,6.786
			c4.205,2.066,8.773,3.508,13.581,4.204l-3.311-10.99H25.316L25.316,80.354z M66.128,87.141l0.379-6.786H55.865l-3.37,10.997
			C57.322,90.657,61.908,89.215,66.128,87.141z"/>
		<path style="fill-rule:evenodd;clip-rule:evenodd;fill:#4D1B02;" d="M40.945,18.178c0.646,0,1.262,0.131,1.827,0.37
			c0.794-1.767,2.495-2.99,4.464-2.99c2.53,0,4.616,2.016,4.908,4.613c0.825-0.653,1.849-1.04,2.957-1.04
			c2.686,0,4.87,2.27,4.941,5.1c0.675-0.367,1.438-0.573,2.249-0.573c2.729,0,4.943,2.347,4.943,5.241
			c0,0.799-0.17,1.557-0.472,2.234c0.299-0.059,0.606-0.091,0.921-0.091c2.73,0,4.943,2.347,4.943,5.24
			c0,1.144-0.346,2.202-0.933,3.063c0.722,0.911,1.157,2.086,1.157,3.369c0,1.562-0.645,2.963-1.667,3.924
			c0.892,0.947,1.442,2.255,1.442,3.699c0,2.186-1.263,4.059-3.057,4.844c0.783,0.928,1.259,2.152,1.259,3.493
			c0,2.382-1.498,4.392-3.55,5.029c0.117,0.446,0.18,0.917,0.18,1.403c0,2.895-2.29,6.086-4.943,5.24
			c0.197,2.249-3.321,6.323-6.778,3.967c-1.85,6.035-14.573,5.018-17.038,0.012c-2.627,2.885-7.162,0.561-7.309-2.789
			c-2.894,0.07-5.05-2.436-5.05-5.238c0-0.432,0.049-0.852,0.142-1.252c-2.371-0.387-4.187-2.559-4.187-5.181
			c0-0.565,0.085-1.11,0.242-1.622c-2.085-0.615-3.612-2.643-3.612-5.049c0-0.646,0.11-1.265,0.312-1.837
			c-1.148-0.959-1.886-2.447-1.886-4.118c0-1.565,0.647-2.971,1.675-3.93c-0.763-0.924-1.226-2.131-1.226-3.455
			c0-2.059,1.121-3.84,2.751-4.697c-0.18-0.541-0.276-1.123-0.276-1.729c0-2.896,2.213-5.242,4.943-5.242
			c0.158,0,0.314,0.008,0.469,0.023c0.559-1.801,2.015-3.171,3.807-3.517c-0.006-0.106-0.009-0.214-0.009-0.322
			c0-2.895,2.213-5.241,4.943-5.241c1.02,0,1.967,0.327,2.754,0.889C38.091,18.893,39.439,18.178,40.945,18.178z"/>
		<path style="fill-rule:evenodd;clip-rule:evenodd;fill:#E5A775;" d="M53.9,60.188v23.816c-4.394,5.775-11.583,5.576-15.977,0
			V60.188C37.924,49.619,53.9,49.619,53.9,60.188z"/>
		<path style="fill-rule:evenodd;clip-rule:evenodd;fill:#B78053;" d="M53.9,60.188v13.104c-3.022,2.365-5.937,3.69-7.988,3.69
			c-2.052,0-4.966-1.325-7.988-3.689V60.188C37.924,49.619,53.9,49.619,53.9,60.188z"/>
		<path style="fill-rule:evenodd;clip-rule:evenodd;fill:#E5A775;" d="M45.912,73.727c-5.201,0-16.189-8.178-19.587-19.89
			c-3.43-11.827,3.03-28.789,19.587-28.789c16.557,0,23.017,16.962,19.586,28.789C62.102,65.549,51.113,73.727,45.912,73.727z"/>
		<path style="fill-rule:evenodd;clip-rule:evenodd;fill:#FF698E;" d="M37.871,61.732c3.508-2.566,7.169-1.048,8.394-1.048
			c1.223,0,4.683-1.519,8.19,1.048C52.709,68.787,40.513,68.965,37.871,61.732z"/>
		<path style="fill-rule:evenodd;clip-rule:evenodd;fill:#A21F40;" d="M38.052,61.695c3.256-1.148,6.135,1.1,8.184,1.1
			c2.048,0,4.934-3.02,8.19-0.984C50.61,65.699,41.894,65.488,38.052,61.695z"/>
		<path style="fill-rule:evenodd;clip-rule:evenodd;fill:#FFFFFF;" d="M38.052,61.695c3.508-1.446,6.089-0.398,8.138-0.398
			c2.048,0,4.938-1.048,8.446,0.398C50.819,63.873,41.894,63.801,38.052,61.695z"/>
		<path style="fill-rule:evenodd;clip-rule:evenodd;fill:#FF698E;" d="M37.905,61.708c3.491-2.532,6.49-0.776,8.535-0.776
			c2.044,0,4.507-1.766,8.015,0.801c-0.013,0.035-0.027,0.07-0.041,0.105C49.942,61.758,42.623,61.712,37.905,61.708z"/>
		
			<ellipse transform="matrix(-0.3946 -0.9189 0.9189 -0.3946 -14.5634 99.3558)" style="fill-rule:evenodd;clip-rule:evenodd;fill:#E5A775;" cx="25.449" cy="54.476" rx="5.702" ry="3.298"/>
		
			<ellipse transform="matrix(0.3945 -0.9189 0.9189 0.3945 -9.4188 94.6568)" style="fill-rule:evenodd;clip-rule:evenodd;fill:#E5A775;" cx="67.118" cy="54.476" rx="5.702" ry="3.296"/>
		<path style="fill-rule:evenodd;clip-rule:evenodd;fill:#4D1B02;" d="M64.387,53.713c15.305-19.955-14.161-31.478-21.905-31.478
			c-6.666,0-27.256,18.625-14.921,32.837c-0.114-2.478,0.096-6.411,3.799-7.782c2.79,0.014,6.276-0.18,6.336-2.9
			c0.588,0.268,1.236,0.416,1.917,0.416c2.318,0,4.256-1.725,4.736-4.029c0.083,0.005,0.167,0.007,0.251,0.007
			c1.753,0,3.288-0.985,4.141-2.462c0.788-0.066,1.522-0.332,2.158-0.75c0.711,1.348,1.977,2.32,3.469,2.573
			c0.477,2.31,2.841,6.157,7.14,4.181C63.635,47.503,64.573,50.537,64.387,53.713z"/>
		<g>
			<circle style="fill-rule:evenodd;clip-rule:evenodd;fill:#FFFFFF;" cx="35.77" cy="82.027" r="1.525"/>
			<circle style="fill-rule:evenodd;clip-rule:evenodd;fill:#FFFFFF;" cx="38.314" cy="84.073" r="1.525"/>
			<circle style="fill-rule:evenodd;clip-rule:evenodd;fill:#FFFFFF;" cx="41.115" cy="85.437" r="1.525"/>
			<circle style="fill-rule:evenodd;clip-rule:evenodd;fill:#FFFFFF;" cx="44.217" cy="86.164" r="1.525"/>
			<circle style="fill-rule:evenodd;clip-rule:evenodd;fill:#FFFFFF;" cx="47.47" cy="86.188" r="1.525"/>
			<circle style="fill-rule:evenodd;clip-rule:evenodd;fill:#FFFFFF;" cx="50.664" cy="85.452" r="1.524"/>
			<circle style="fill-rule:evenodd;clip-rule:evenodd;fill:#FFFFFF;" cx="53.616" cy="84.004" r="1.525"/>
			<circle style="fill-rule:evenodd;clip-rule:evenodd;fill:#FFFFFF;" cx="56.067" cy="82.015" r="1.524"/>
			<circle style="fill-rule:evenodd;clip-rule:evenodd;fill:#FFFFFF;" cx="26.82" cy="58.719" r="1.525"/>
			<circle style="fill-rule:evenodd;clip-rule:evenodd;fill:#FFFFFF;" cx="65.394" cy="58.719" r="1.525"/>
		</g>
		<path style="opacity:0.2;fill-rule:evenodd;clip-rule:evenodd;" d="M72.939,83.025c-1.661-1.973-4.194-2.848-6.457-2.617
			l0.003-0.054H55.844H53.88v-3.519c0.866-0.64,1.516-1.475,1.837-2.522c3.457,2.357,6.976-1.717,6.778-3.966
			c2.652,0.846,4.943-2.346,4.943-5.24c0-0.486-0.063-0.957-0.18-1.402c2.051-0.639,3.55-2.649,3.55-5.029
			c0-1.015-0.272-1.961-0.742-2.764l0.06-0.135c0.17-0.396,0.311-0.793,0.421-1.184c1.247-0.951,2.06-2.503,2.06-4.256
			c0-1.444-0.551-2.752-1.442-3.699c1.022-0.961,1.667-2.361,1.667-3.924c0-1.283-0.436-2.458-1.157-3.369
			c0.587-0.861,0.933-1.919,0.933-3.063c0-2.894-2.214-5.24-4.943-5.24c-0.315,0-0.623,0.032-0.92,0.091
			c0.301-0.678,0.47-1.435,0.47-2.234c0-2.895-2.213-5.241-4.942-5.241c-0.811,0-1.575,0.206-2.249,0.573
			c-0.071-2.83-2.257-5.1-4.941-5.1c-1.108,0-2.132,0.387-2.956,1.04c-0.293-2.598-2.379-4.613-4.909-4.613
			c-0.459,0-0.902,0.066-1.324,0.19v76.075l0.021,0.001C56.017,91.824,65.356,88.557,72.939,83.025z"/>
	</g>
</g>
</svg>