<?xml version="1.0" encoding="iso-8859-1"?>
<!-- Uploaded to: SVG Repo, www.svgrepo.com, Generator: SVG Repo Mixer Tools -->
<!DOCTYPE svg PUBLIC "-//W3C//DTD SVG 1.1//EN" "http://www.w3.org/Graphics/SVG/1.1/DTD/svg11.dtd">
<svg height="800px" width="800px" version="1.1" id="Capa_1" xmlns="http://www.w3.org/2000/svg" xmlns:xlink="http://www.w3.org/1999/xlink" 
	 viewBox="0 0 91.824 91.824" xml:space="preserve">
<g>
	<path style="fill-rule:evenodd;clip-rule:evenodd;fill:#5EBE79;" d="M45.913,91.823c25.287,0,45.911-20.624,45.911-45.911
		S71.2,0,45.913,0S0.001,20.625,0.001,45.912S20.625,91.823,45.913,91.823z"/>
	<g>
		<path style="fill-rule:evenodd;clip-rule:evenodd;fill:#A1400F;" d="M62.294,28.543c1.691-0.789,5.972,3.566,7.694,10.605
			c-5.188-3.09-0.924,0.068-0.754,9.829c0.183,10.483-1.729,13.96-4.877,17.905c-1.816-7.855-4.443,5.572-10.508,9.297
			c-6.089,3.74-10.359,3.225-15.66,0.234c-5.676-3.201-8.107-15.211-8.754-7.098c-5.755-6.213-7.202-12.64-7.156-20.679
			c0.052-9.111,7.266-14.515-0.783-8.993c3.848-8.778,8.672-12.918,13.17-15.416C42.739,19.744,54.041,19.398,62.294,28.543z"/>
		<path style="fill-rule:evenodd;clip-rule:evenodd;fill:#FBD9BD;" d="M57.847,89.293l0.243,0.895
			c4.319-1.186,8.383-2.986,12.094-5.301C67.162,76.823,55.468,80.533,57.847,89.293z"/>
		<path style="fill-rule:evenodd;clip-rule:evenodd;fill:#E2687F;" d="M71.199,84.234c-2.418-4.567-8.409-4.861-11.042-1.75
			l0.425,6.945C64.366,88.154,67.927,86.397,71.199,84.234z"/>
		<path style="fill-rule:evenodd;clip-rule:evenodd;fill:#FBD9BD;" d="M34.479,89.293l-0.277,1.021
			c-4.334-1.141-8.418-2.896-12.15-5.172C24.919,76.748,36.883,80.441,34.479,89.293z"/>
		<path style="fill-rule:evenodd;clip-rule:evenodd;fill:#E2687F;" d="M21.002,84.482c2.329-4.805,8.486-5.166,11.167-1.998
			l-0.435,7.105C27.914,88.35,24.312,86.624,21.002,84.482z"/>
		<path style="fill-rule:evenodd;clip-rule:evenodd;fill:#FF93A7;" d="M66.705,80.43l-0.37,6.609
			c-6.151,3.06-13.085,4.785-20.422,4.785c-7.177,0-13.968-1.648-20.018-4.584l-0.38-6.811H66.705z"/>
		<path style="fill-rule:evenodd;clip-rule:evenodd;fill:#FBD9BD;" d="M54.098,59.985v19.572c-4.395,5.775-11.584,5.575-15.977,0
			V59.985C38.122,49.416,54.098,49.416,54.098,59.985z"/>
		<path style="fill-rule:evenodd;clip-rule:evenodd;fill:#FF93A7;" d="M35.577,80.43l10.532,9.545l9.954-9.676l4.988,8.967
			c-4.74,1.655-9.834,2.559-15.139,2.559c-5.322,0-10.432-0.909-15.185-2.574L35.577,80.43z"/>
		<polygon style="fill-rule:evenodd;clip-rule:evenodd;fill:#E2687F;" points="49.941,82.678 46.109,89.975 58.726,80.43 
			56.063,77.5 		"/>
		<polygon style="fill-rule:evenodd;clip-rule:evenodd;fill:#E2687F;" points="42.278,82.678 46.109,89.975 33.493,80.43 
			36.155,77.5 		"/>
		<path style="fill-rule:evenodd;clip-rule:evenodd;fill:#FFFFFF;" d="M36.155,77.5l-2.662,2.93l2.377,10.289
			c0.2,0.045,0.4,0.089,0.602,0.131l5.807-8.172L36.155,77.5L36.155,77.5z M56.371,90.626c-0.225,0.052-0.45,0.101-0.676,0.149
			l-5.754-8.098l6.122-5.178l2.663,2.93L56.371,90.626z"/>
		<path style="fill-rule:evenodd;clip-rule:evenodd;fill:#ECC2A0;" d="M54.098,59.985V73.09c-3.024,2.363-5.937,3.689-7.988,3.689
			c-2.052,0-4.966-1.326-7.988-3.689V59.985C38.122,49.416,54.098,49.416,54.098,59.985z"/>
		<path style="fill-rule:evenodd;clip-rule:evenodd;fill:#FBD9BD;" d="M46.11,73.524c-5.202,0-16.189-8.178-19.586-19.89
			c-3.431-11.827,3.029-28.789,19.586-28.789c16.557,0,23.016,16.961,19.586,28.789C62.298,65.348,51.311,73.524,46.11,73.524z"/>
		<path style="fill-rule:evenodd;clip-rule:evenodd;fill:#FF386A;" d="M37.818,61.529c3.508-2.566,7.169-1.047,8.393-1.047
			c1.224,0,4.684-1.52,8.19,1.047C52.656,68.584,40.459,68.763,37.818,61.529z"/>
		<path style="fill-rule:evenodd;clip-rule:evenodd;fill:#A21F40;" d="M37.922,61.492c3.257-1.149,6.136,1.101,8.184,1.101
			c2.049,0,4.934-3.02,8.19-0.986C50.481,65.496,41.764,65.286,37.922,61.492z"/>
		<path style="fill-rule:evenodd;clip-rule:evenodd;fill:#FFFFFF;" d="M37.818,61.492c3.508-1.446,6.089-0.399,8.137-0.399
			c2.049,0,4.938-1.048,8.446,0.399C50.585,63.671,41.659,63.598,37.818,61.492z"/>
		<path style="fill-rule:evenodd;clip-rule:evenodd;fill:#FF386A;" d="M37.834,61.506c3.492-2.533,6.49-0.775,8.535-0.775
			c2.045,0,4.507-1.768,8.015,0.799c-0.013,0.037-0.026,0.071-0.04,0.107C49.872,61.556,42.553,61.51,37.834,61.506z"/>
		
			<ellipse transform="matrix(-0.3947 -0.9188 0.9188 -0.3947 -15.0307 97.1951)" style="fill-rule:evenodd;clip-rule:evenodd;fill:#FBD9BD;" cx="24.501" cy="53.549" rx="5.701" ry="3.297"/>
		
			<ellipse transform="matrix(0.3947 -0.9188 0.9188 0.3947 -9.1466 93.2142)" style="fill-rule:evenodd;clip-rule:evenodd;fill:#FBD9BD;" cx="66.17" cy="53.549" rx="5.701" ry="3.297"/>
		<path style="fill-rule:evenodd;clip-rule:evenodd;fill:#A1400F;" d="M64.028,55.549c0,0-1.433-13.351-4.677-17.813
			c-2.813,4.15-10.237,6.425-18.334,5.255c13.903-6.561-3.461,0.795-6.693-2.246c-3.08,1.629-4.597,9.996-6.072,15.041
			c-5.175-9.006-2.987-19.854,0.582-24.987c6.888-9.905,21.642-12.099,31.718-3.092C67.543,33.956,69.781,47.445,64.028,55.549z"/>
		<path style="opacity:0.2;fill-rule:evenodd;clip-rule:evenodd;" d="M66.682,80.43l-0.012,0.225
			c1.797,0.461,3.481,1.636,4.513,3.591c-7.249,4.788-15.934,7.579-25.271,7.579V21.168c5.658-0.075,11.531,2.024,16.36,7.375
			c1.691-0.789,5.972,3.566,7.693,10.605c-5.183-3.087-0.932,0.063-0.754,9.803c0.935,1.199,0.971,3.561-0.034,5.898
			c-0.053,0.123-0.107,0.243-0.163,0.361c-0.568,5.881-2.259,8.639-4.679,11.672c-1.791-7.746-4.371,5.207-10.26,9.138v3.141
			L56.04,77.5l2.663,2.93h5.17c0.17-0.006,0.34-0.006,0.51,0h0.349c0.111-0.002,0.223-0.002,0.334,0H66.682z"/>
	</g>
</g>
</svg>